# xmcd CD database file
#
# Track frame offsets:
#	150
#	13149
#	29594
#	44379
#	62341
#	73564
#	87580
#	109833
#	127283
#	142710
#	164873
#	177783
#	194495
#	212567
#	230635
#
# Disc length: 3314 seconds
#
# Revision: 0
# Processed by: cddbd v1.5.2PL0 Copyright (c) Steve Scherf et al.
# Submitted via: CDex 1.70beta2
#
DISCID=df0cf00f
DTITLE=Sławek Wierzcholski - Blues w filharmonii
DYEAR=2009
DGENRE=Blues
TTITLE0=Koniec czy poczatek
TTITLE1=Jednym ruchem
TTITLE2=Co ma byc
TTITLE3=Przestan juz
TTITLE4=Figle
TTITLE5=Stoje na moscie
TTITLE6=Co zobaczysz
TTITLE7=Wczorajsza prawda
TTITLE8=Nieokreslony stan
TTITLE9=Codzienna gonitwa
TTITLE10=Nie bedzie mnie
TTITLE11=Dylematy
TTITLE12=Zasady
TTITLE13=Ja i on
TTITLE14=Pozno
EXTD=YEAR: 2009
EXTT0=
EXTT1=
EXTT2=
EXTT3=
EXTT4=
EXTT5=
EXTT6=
EXTT7=
EXTT8=
EXTT9=
EXTT10=
EXTT11=
EXTT12=
EXTT13=
EXTT14=
PLAYORDER=
